# xmcd
#
# Track frame offsets:
#	150
#	15633
#	33197
#	55985
#	77242
#	91096
#	115119
#	138612
#	152689
#	168744
#	189357
#	197257
#
# Disc length: 2870 seconds
#
# Revision: 0
# Processed by: cddbd v1.5.2PL0 Copyright (c) Steve Scherf et al.
# Submitted via: audiograbber 1.83.01
#
DISCID=900b340c
DTITLE=Emmanuel DJOB - The Miracle of life
DYEAR=2010
DGENRE=Soul
TTITLE0=The Miracle of life
TTITLE1=I can smile again
TTITLE2=Hero
TTITLE3=If you look into my eyes
TTITLE4=Make one step
TTITLE5=Lord's messenger
TTITLE6=Keep on rolling
TTITLE7=Meeting tonite
TTITLE8=Hands of life
TTITLE9=Thanx and praises
TTITLE10=Dedication
TTITLE11=Make one step (bonus track)
EXTD=
EXTT0=
EXTT1=
EXTT2=
EXTT3=
EXTT4=
EXTT5=
EXTT6=
EXTT7=
EXTT8=
EXTT9=
EXTT10=
EXTT11=
PLAYORDER=
